# xmcd CD database file
#
# Track frame offsets:
#	150
#	44882
#	88967
#	133245
#	177272
#	221424
#
# Disc length: 3548 seconds
#
# Revision: 1
# Processed by: cddbd v1.4PL0 Copyright (c) Steve Scherf et al.
# Submitted via: CDex 1.50beta10
#
DISCID=5d0dda06
DTITLE=Sons Puros da Natureza - Mais Natural
DYEAR=2000
DGENRE=New Age
TTITLE0=Passarinhos
TTITLE1=Floresta
TTITLE2=Chuva
TTITLE3=Mar
TTITLE4=Golfinhos
TTITLE5=Cachoeira
EXTD=YEAR: 2000
EXTT0=
EXTT1=
EXTT2=
EXTT3=
EXTT4=
EXTT5=
PLAYORDER=
